<?xml version="1.0" encoding="UTF-8"?>
<svg width="31.378mm" height="30.98mm" version="1.1" viewBox="0 0 31.378 30.98" xmlns="http://www.w3.org/2000/svg" xmlns:cc="http://creativecommons.org/ns#" xmlns:dc="http://purl.org/dc/elements/1.1/" xmlns:rdf="http://www.w3.org/1999/02/22-rdf-syntax-ns#">
 <metadata>
  <rdf:RDF>
   <cc:Work rdf:about="">
    <dc:format>image/svg+xml</dc:format>
    <dc:type rdf:resource="http://purl.org/dc/dcmitype/StillImage"/>
    <dc:title/>
   </cc:Work>
  </rdf:RDF>
 </metadata>
 <g transform="translate(-67.461 -102.62)" fill="#808080" fill-opacity=".50196">
  <path d="m97.839 120a4.009 4.009 0 0 1-4.009 4.009 4.009 4.009 0 0 1-4.009-4.009 4.009 4.009 0 0 1 4.009-4.009 4.009 4.009 0 0 1 4.009 4.009z" style="paint-order:stroke fill markers"/>
  <path d="m86.237 107.63a4.009 4.009 0 0 1-4.009 4.009 4.009 4.009 0 0 1-4.009-4.009 4.009 4.009 0 0 1 4.009-4.009 4.009 4.009 0 0 1 4.009 4.009z" style="paint-order:stroke fill markers"/>
  <path d="m77.9 112.18a4.009 4.009 0 0 1-4.009 4.009 4.009 4.009 0 0 1-4.009-4.009 4.009 4.009 0 0 1 4.009-4.009 4.009 4.009 0 0 1 4.009 4.009z" style="paint-order:stroke fill markers"/>
  <path d="m76.479 121.61a4.009 4.009 0 0 1-4.009 4.009 4.009 4.009 0 0 1-4.009-4.009 4.009 4.009 0 0 1 4.009-4.009 4.009 4.009 0 0 1 4.009 4.009z" style="paint-order:stroke fill markers"/>
  <path d="m82.963 128.59a4.009 4.009 0 0 1-4.009 4.009 4.009 4.009 0 0 1-4.009-4.009 4.009 4.009 0 0 1 4.009-4.009 4.009 4.009 0 0 1 4.009 4.009z" style="paint-order:stroke fill markers"/>
  <path d="m92.469 127.88a4.009 4.009 0 0 1-4.009 4.009 4.009 4.009 0 0 1-4.009-4.009 4.009 4.009 0 0 1 4.009-4.009 4.009 4.009 0 0 1 4.009 4.009z" style="paint-order:stroke fill markers"/>
  <path d="m95.029 110.9a4.009 4.009 0 0 1-4.009 4.009 4.009 4.009 0 0 1-4.009-4.009 4.009 4.009 0 0 1 4.009-4.009 4.009 4.009 0 0 1 4.009 4.009z" style="paint-order:stroke fill markers"/>
 </g>
</svg>
